<?xml version="1.0" standalone="no"?>
<!DOCTYPE svg PUBLIC "-//W3C//DTD SVG 20010904//EN"
 "http://www.w3.org/TR/2001/REC-SVG-20010904/DTD/svg10.dtd">
<svg version="1.0" xmlns="http://www.w3.org/2000/svg"
 width="40.000000pt" height="40.000000pt" viewBox="0 0 40.000000 40.000000"
 preserveAspectRatio="xMidYMid meet">
<metadata>
Created by potrace 1.16, written by Peter Selinger 2001-2019
</metadata>
<g transform="translate(0.000000,40.000000) scale(0.031250,-0.031250)"
fill="#000000" stroke="none">
<path d="M0 644 l0 -397 228 6 c252 6 291 14 351 70 47 45 71 101 71 170 0 72
-17 113 -63 154 l-37 32 29 29 c37 37 54 97 45 162 -9 69 -39 110 -103 143
l-55 27 -233 0 -233 0 0 -396z m415 242 c39 -17 54 -53 39 -95 -15 -41 -47
-51 -176 -51 l-118 0 0 80 0 80 110 0 c74 0 122 -5 145 -14z m32 -319 c38 -37
37 -97 -1 -136 -25 -25 -31 -26 -156 -29 l-130 -4 0 102 0 102 130 -3 c126 -4
130 -5 157 -32z"/>
<path d="M810 955 l0 -55 175 0 175 0 0 55 0 55 -175 0 -175 0 0 -55z"/>
<path d="M923 850 c-164 -34 -244 -167 -221 -367 9 -78 36 -131 89 -177 61
-52 123 -69 228 -64 124 6 206 57 246 151 l15 37 -82 0 c-77 -1 -85 -3 -118
-30 -64 -55 -174 -31 -206 45 -8 19 -14 39 -14 45 0 6 73 10 211 10 l212 0 -5
83 c-7 134 -67 220 -178 255 -53 16 -130 21 -177 12z m151 -164 c20 -18 36
-43 36 -55 0 -20 -4 -21 -120 -21 -112 0 -120 1 -120 19 0 11 15 36 34 55 30
32 39 36 84 36 44 0 55 -5 86 -34z"/>
</g>
</svg>
