<?xml version="1.0" standalone="no"?>
<!DOCTYPE svg PUBLIC "-//W3C//DTD SVG 20010904//EN"
 "http://www.w3.org/TR/2001/REC-SVG-20010904/DTD/svg10.dtd">
<svg version="1.0" xmlns="http://www.w3.org/2000/svg"
 width="140.000000pt" height="140.000000pt" viewBox="0 0 140.000000 140.000000"
 preserveAspectRatio="xMidYMid meet">
<metadata>
Created by potrace 1.16, written by Peter Selinger 2001-2019
</metadata>
<g transform="translate(0.000000,140.000000) scale(0.054687,-0.054687)"
fill="#000000" stroke="none">
<path d="M1575 2495 c-27 -22 -36 -24 -91 -19 -79 8 -106 -6 -184 -96 -66 -78
-77 -118 -41 -157 15 -16 18 -30 14 -62 -7 -50 9 -86 46 -100 14 -6 79 -27
144 -46 127 -38 201 -71 229 -102 24 -26 72 -135 93 -208 24 -83 29 -87 95
-75 97 18 140 71 140 172 0 63 -5 60 105 73 28 4 57 9 66 11 12 3 20 -5 27
-26 13 -36 14 -36 172 -15 65 9 117 20 122 28 23 36 -23 552 -51 580 -5 5 -60
4 -122 -3 -162 -16 -169 -17 -169 -44 0 -21 -5 -24 -76 -30 l-76 -6 -75 46
c-91 57 -220 104 -288 104 -39 0 -57 -6 -80 -25z m166 -64 c51 -17 117 -49
219 -107 42 -23 51 -25 128 -18 45 3 82 5 83 3 3 -12 35 -345 34 -347 -2 -2
-55 -11 -119 -21 -63 -9 -119 -21 -123 -25 -4 -4 -11 -46 -14 -92 -6 -90 -15
-108 -61 -119 -25 -6 -27 -4 -42 48 -28 97 -92 212 -133 239 -48 32 -140 68
-266 104 -100 28 -122 44 -95 70 13 14 22 14 74 0 32 -8 85 -24 118 -35 66
-23 100 -16 94 22 -4 26 -56 47 -208 84 -58 14 -109 30 -115 35 -6 5 -3 15 8
25 16 17 22 16 105 -1 48 -9 119 -31 159 -48 81 -33 106 -33 111 -1 2 16 -6
28 -30 43 -38 24 -211 80 -245 80 -29 0 -30 16 -3 30 34 18 156 -10 272 -62
56 -25 70 -29 83 -18 34 28 18 50 -67 90 -70 33 -78 39 -52 40 17 0 55 -8 85
-19z m688 -199 c5 -59 13 -153 16 -208 l6 -102 -68 -6 c-37 -4 -75 -9 -84 -12
-13 -4 -19 27 -38 227 -12 127 -20 233 -19 235 2 2 40 7 83 11 95 10 88 19
104 -145z"/>
<path d="M672 2117 l-192 -193 2 -269 3 -270 30 0 30 0 3 248 2 247 146 0 146
0 34 34 34 34 0 146 0 146 124 0 c117 0 125 1 131 20 14 43 -8 50 -159 50
l-141 0 -193 -193z m157 -153 c-8 -10 -39 -14 -118 -14 l-106 0 115 115 115
115 3 -101 c2 -66 -1 -106 -9 -115z"/>
<path d="M1251 1829 c-141 -17 -287 -119 -354 -247 -46 -88 -59 -139 -58 -236
0 -155 67 -293 188 -388 l63 -50 0 -126 c0 -146 13 -186 73 -239 88 -77 251
-72 333 11 49 49 64 93 64 193 0 84 -9 93 -84 93 l-46 0 0 54 c0 34 5 60 14
68 150 141 176 184 176 292 -1 113 -40 178 -127 207 -67 22 -163 -8 -163 -52
0 -27 23 -34 74 -19 85 23 146 -34 146 -136 0 -67 -32 -126 -102 -187 -74 -65
-88 -91 -88 -167 l0 -60 -30 0 c-29 0 -30 1 -30 49 0 74 -13 98 -101 183 -81
80 -98 89 -118 64 -18 -22 7 -62 83 -132 65 -60 66 -62 66 -113 l0 -51 -35 0
-35 0 0 51 c0 42 -4 54 -27 75 -139 123 -155 141 -186 203 -30 62 -32 72 -32
176 0 104 2 114 32 175 104 212 353 301 558 201 154 -76 243 -229 233 -402 -4
-64 -11 -92 -41 -152 -35 -71 -48 -86 -172 -194 -30 -26 -36 -37 -33 -65 2
-28 7 -34 30 -36 22 -3 29 2 34 23 3 14 19 32 35 41 50 25 134 120 167 186 39
80 51 134 52 229 0 137 -62 277 -161 363 -56 49 -168 104 -228 111 -89 11
-107 11 -170 4z m237 -1117 c-7 -99 -65 -152 -165 -152 -98 0 -154 52 -161
150 l-4 60 167 0 167 0 -4 -58z"/>
<path d="M2127 1813 c-4 -3 -7 -179 -7 -389 l0 -383 -247 -355 -248 -355 -425
-3 -425 -3 0 -30 0 -30 398 -3 397 -2 -15 -30 c-8 -16 -15 -38 -15 -50 0 -29
27 -77 49 -90 24 -13 87 -13 110 -1 10 6 107 139 217 296 l199 286 3 -147 c3
-188 1 -192 -99 -196 -75 -3 -99 -17 -86 -52 5 -13 22 -16 90 -16 70 0 89 3
111 21 52 41 56 61 56 287 l0 209 110 158 c135 193 144 210 161 309 12 73 12
79 -6 92 -16 12 -26 9 -88 -24 -64 -35 -119 -84 -159 -142 -16 -24 -17 -9 -17
297 -1 177 -4 328 -7 337 -6 16 -45 22 -57 9z m250 -621 c-16 -47 -701 -1030
-724 -1039 -8 -3 -22 2 -31 10 -14 15 -13 20 15 59 16 24 177 253 356 509 217
310 337 474 359 487 18 12 34 19 36 18 1 -2 -4 -22 -11 -44z"/>
<path d="M1146 1410 c-48 -9 -90 -52 -105 -107 -20 -72 -10 -107 30 -101 19 2
25 11 31 47 10 57 30 87 65 94 15 3 29 4 31 3 1 -2 -5 -20 -14 -42 -32 -75 2
-175 61 -182 69 -8 105 31 105 115 -1 73 -70 173 -120 173 -10 0 -24 2 -32 4
-7 2 -31 0 -52 -4z"/>
<path d="M228 1285 c-85 -61 -101 -89 -97 -164 3 -45 -1 -55 -28 -84 -18 -17
-34 -44 -38 -58 -13 -52 31 -231 81 -331 27 -53 29 -83 13 -158 -8 -37 -15
-50 -29 -50 -28 0 -36 -17 -65 -150 l-27 -124 21 -17 c37 -30 419 -109 528
-109 47 0 39 -17 82 157 27 106 27 121 -4 133 -14 5 -25 13 -25 17 0 5 9 45
21 91 l22 82 76 0 c101 0 131 18 160 95 31 82 29 92 -26 116 -100 42 -178 85
-214 119 -43 41 -59 88 -90 260 -11 63 -22 125 -25 137 -10 51 -76 79 -124 53
-14 -7 -21 -6 -27 3 -4 8 -18 19 -30 26 -44 22 -78 13 -155 -44z m126 -24 c3
-5 13 -58 21 -118 22 -159 35 -197 67 -201 37 -4 40 14 18 128 -11 55 -20 112
-20 125 0 26 36 53 50 38 4 -4 13 -44 19 -88 18 -113 50 -244 72 -286 26 -52
89 -102 190 -151 75 -37 87 -46 82 -63 -13 -46 -31 -54 -132 -57 l-96 -3 -30
-118 c-19 -74 -34 -116 -41 -113 -7 3 -84 19 -173 37 -89 17 -161 35 -161 38
0 3 6 39 14 79 15 77 10 121 -17 163 -26 40 -55 121 -71 202 -23 109 -9 128
23 32 27 -80 46 -103 75 -92 21 8 20 35 -4 106 -10 32 -24 99 -31 150 -11 88
-11 94 8 113 20 19 20 19 32 -69 7 -48 22 -117 34 -153 19 -57 25 -65 50 -68
16 -2 29 2 32 11 3 7 -5 52 -19 100 -26 89 -43 224 -33 251 7 17 32 22 41 7z
m36 -945 c116 -24 213 -46 216 -48 8 -9 -30 -158 -40 -158 -59 0 -422 74 -438
89 -12 11 24 161 38 161 7 0 107 -20 224 -44z"/>
</g>
</svg>
