<?xml version="1.0" standalone="no"?>
<!DOCTYPE svg PUBLIC "-//W3C//DTD SVG 20010904//EN"
 "http://www.w3.org/TR/2001/REC-SVG-20010904/DTD/svg10.dtd">
<svg version="1.0" xmlns="http://www.w3.org/2000/svg"
 width="140.000000pt" height="140.000000pt" viewBox="0 0 140.000000 140.000000"
 preserveAspectRatio="xMidYMid meet">
<metadata>
Created by potrace 1.16, written by Peter Selinger 2001-2019
</metadata>
<g transform="translate(0.000000,140.000000) scale(0.027344,-0.027344)"
fill="#000000" stroke="none">
<path d="M1972 5020 c-245 -65 -449 -270 -512 -516 -14 -53 -20 -111 -20 -184
0 -208 65 -365 210 -510 145 -145 302 -210 510 -210 208 0 365 65 510 210 145
145 210 302 210 510 0 73 -6 131 -20 184 -63 248 -268 453 -516 516 -103 27
-270 26 -372 0z m373 -178 c174 -64 316 -225 355 -403 18 -80 8 -229 -18 -304
-63 -173 -225 -316 -403 -355 -80 -18 -229 -8 -304 18 -173 63 -316 225 -355
403 -18 80 -8 229 18 304 60 165 208 302 379 351 74 21 253 13 328 -14z"/>
<path d="M1940 4620 c-19 -19 -20 -33 -20 -300 0 -393 -17 -384 369 -191 142
72 261 137 265 146 8 21 8 69 0 90 -4 9 -123 74 -265 146 -275 137 -310 148
-349 109z m245 -247 c52 -26 95 -50 95 -53 0 -5 -185 -100 -195 -100 -3 0 -5
45 -5 100 0 55 2 100 5 100 3 0 48 -21 100 -47z"/>
<path d="M3655 4941 c-22 -10 -54 -34 -72 -52 -53 -57 -63 -93 -63 -239 0
-117 2 -132 20 -150 13 -13 33 -20 60 -20 67 0 80 22 80 135 0 117 14 158 60
174 46 16 954 16 1000 0 59 -21 60 -27 60 -549 0 -522 -1 -528 -60 -549 -46
-16 -954 -16 -1000 0 -55 20 -60 46 -60 334 0 242 -1 256 -20 275 -13 13 -33
20 -60 20 -27 0 -47 -7 -60 -20 -19 -19 -20 -33 -20 -312 0 -327 3 -340 71
-405 68 -65 53 -63 651 -63 606 0 586 -2 655 71 64 68 63 53 63 649 0 596 1
581 -63 649 -69 73 -49 71 -657 71 -510 0 -548 -2 -585 -19z"/>
<path d="M4215 4621 c-49 -23 -99 -74 -119 -123 -10 -22 -16 -67 -16 -108 l0
-70 -60 0 c-75 0 -100 -20 -100 -80 0 -60 25 -80 100 -80 l60 0 0 -140 c0
-127 2 -142 20 -160 13 -13 33 -20 60 -20 27 0 47 7 60 20 18 18 20 33 20 160
l0 140 60 0 c75 0 100 20 100 80 0 60 -25 80 -100 80 l-60 0 0 35 c0 57 23
101 60 114 18 6 75 11 126 11 112 0 134 13 134 80 0 27 -7 47 -20 60 -18 18
-33 20 -152 20 -108 0 -140 -4 -173 -19z"/>
<path d="M180 4220 c-20 -20 -20 -33 -20 -700 0 -667 0 -680 20 -700 19 -19
33 -20 540 -20 507 0 521 1 540 20 20 20 20 33 20 700 0 667 0 680 -20 700
-19 19 -33 20 -540 20 -507 0 -521 -1 -540 -20z m940 -700 l0 -560 -400 0
-400 0 0 560 0 560 400 0 400 0 0 -560z"/>
<path d="M660 3900 c-13 -13 -20 -33 -20 -60 0 -70 20 -80 160 -80 140 0 160
10 160 80 0 70 -20 80 -160 80 -107 0 -122 -2 -140 -20z"/>
<path d="M500 3580 c-13 -13 -20 -33 -20 -60 0 -27 7 -47 20 -60 19 -19 33
-20 220 -20 187 0 201 1 220 20 13 13 20 33 20 60 0 27 -7 47 -20 60 -19 19
-33 20 -220 20 -187 0 -201 -1 -220 -20z"/>
<path d="M500 3260 c-13 -13 -20 -33 -20 -60 0 -27 7 -47 20 -60 19 -19 33
-20 220 -20 187 0 201 1 220 20 13 13 20 33 20 60 0 27 -7 47 -20 60 -19 19
-33 20 -220 20 -187 0 -201 -1 -220 -20z"/>
<path d="M3153 3752 c-7 -4 -71 -86 -143 -182 -114 -152 -130 -178 -130 -212
0 -50 28 -78 78 -78 20 0 42 4 49 8 7 4 71 86 143 182 114 152 130 178 130
212 0 50 -28 78 -77 78 -21 0 -43 -4 -50 -8z"/>
<path d="M3310 3230 c-96 -72 -178 -136 -182 -143 -4 -7 -8 -29 -8 -49 0 -50
28 -78 78 -78 34 0 60 16 212 130 96 72 178 136 182 143 4 7 8 29 8 50 0 49
-28 77 -78 77 -34 0 -60 -16 -212 -130z"/>
<path d="M1974 2811 c-564 -465 -570 -470 -749 -573 -202 -116 -239 -144 -281
-220 -26 -48 -29 -62 -29 -145 l0 -92 -47 -26 c-96 -52 -147 -129 -148 -220 0
-84 17 -125 74 -181 87 -85 189 -95 306 -33 l59 31 28 -20 c115 -80 238 -88
367 -22 46 23 62 27 68 18 5 -7 41 -69 80 -138 40 -69 90 -144 111 -167 136
-148 389 -59 414 145 8 68 -7 108 -93 259 -42 74 -74 136 -72 138 1 2 272 104
601 228 329 124 607 233 618 242 43 40 31 68 -182 440 -110 193 -212 360 -225
373 -32 28 -76 28 -109 -1 -52 -44 -44 -64 150 -401 98 -169 176 -308 174
-310 -6 -5 -1265 -476 -1272 -476 -4 0 -94 -49 -199 -110 -158 -91 -198 -110
-232 -110 -49 0 -94 26 -128 72 -41 55 -168 282 -178 318 -12 40 1 94 30 128
21 26 301 193 311 186 4 -2 51 -81 105 -175 53 -93 107 -177 118 -185 25 -17
75 -18 97 -1 20 16 39 51 39 74 0 10 -48 101 -106 201 -58 101 -104 187 -102
192 2 4 225 190 495 414 470 387 493 404 504 383 35 -67 100 -88 150 -48 39
31 31 82 -25 179 -52 89 -67 102 -119 102 -30 0 -98 -53 -603 -469z m-940
-1263 l27 -48 -33 -20 c-52 -32 -76 -35 -106 -13 -31 23 -41 75 -20 100 7 9
28 26 48 38 40 25 34 29 84 -57z m954 -216 c39 -69 72 -134 72 -144 0 -27 -45
-68 -73 -68 -40 0 -63 27 -145 171 l-79 137 61 35 c72 42 55 56 164 -131z"/>
<path d="M3660 2854 c-91 -18 -189 -39 -218 -45 -68 -14 -92 -37 -92 -89 0
-56 26 -80 88 -80 27 0 138 18 248 40 223 45 239 53 239 120 0 47 -25 77 -70
84 -17 3 -104 -11 -195 -30z"/>
<path d="M420 2540 c-20 -20 -20 -33 -20 -880 l0 -860 -100 0 c-145 0 -143 3
-138 -198 3 -150 4 -160 32 -217 38 -77 114 -153 191 -191 l60 -29 1155 0
1155 0 60 29 c77 38 153 114 191 191 28 57 29 67 32 217 5 201 7 198 -138 198
l-100 0 0 414 0 415 -26 20 c-34 27 -74 27 -108 0 l-26 -20 0 -415 0 -414
-1040 0 -1040 0 0 800 0 800 354 0 355 0 20 26 c27 34 27 74 0 108 l-20 26
-415 0 c-401 0 -415 -1 -434 -20z m2456 -1967 c-8 -82 -32 -137 -77 -180 -51
-48 -101 -65 -216 -71 l-103 -5 0 62 c0 76 -20 101 -80 101 -60 0 -80 -25 -80
-100 l0 -60 -720 0 -720 0 0 60 c0 75 -20 100 -80 100 -60 0 -80 -25 -80 -101
l0 -62 -103 5 c-194 10 -275 80 -293 251 l-7 67 1283 0 1283 0 -7 -67z"/>
<path d="M3655 2461 c-22 -10 -54 -34 -72 -52 -65 -68 -63 -53 -63 -651 0
-606 -2 -586 71 -655 68 -65 53 -63 651 -63 606 0 586 -2 655 71 53 57 63 93
63 239 0 117 -2 132 -20 150 -27 27 -93 27 -120 0 -17 -17 -20 -33 -20 -115 0
-117 -14 -158 -60 -174 -46 -16 -954 -16 -1000 0 -59 21 -60 27 -60 549 0 522
1 528 60 549 46 16 954 16 1000 0 55 -20 60 -46 60 -334 0 -242 1 -256 20
-275 13 -13 33 -20 60 -20 27 0 47 7 60 20 19 19 20 33 20 310 0 321 -2 335
-63 399 -69 73 -49 71 -657 71 -510 0 -548 -2 -585 -19z"/>
<path d="M4112 2059 c-204 -79 -260 -370 -102 -529 160 -159 452 -102 529 105
64 171 -16 365 -174 424 -74 28 -180 28 -253 0z m206 -169 c130 -79 74 -280
-78 -280 -152 0 -208 201 -78 280 43 26 113 26 156 0z"/>
</g>
</svg>
