<?xml version="1.0" standalone="no"?>
<!DOCTYPE svg PUBLIC "-//W3C//DTD SVG 20010904//EN"
 "http://www.w3.org/TR/2001/REC-SVG-20010904/DTD/svg10.dtd">
<svg version="1.0" xmlns="http://www.w3.org/2000/svg"
 width="140.000000pt" height="140.000000pt" viewBox="0 0 140.000000 140.000000"
 preserveAspectRatio="xMidYMid meet">
<metadata>
Created by potrace 1.16, written by Peter Selinger 2001-2019
</metadata>
<g transform="translate(0.000000,140.000000) scale(0.027344,-0.027344)"
fill="#000000" stroke="none">
<path d="M2022 5101 c-40 -10 -112 -38 -160 -61 -72 -36 -104 -60 -183 -139
-83 -84 -102 -109 -142 -191 -76 -158 -77 -170 -77 -638 l0 -412 -406 0 c-464
0 -489 -3 -644 -77 -82 -40 -108 -59 -191 -142 -83 -83 -102 -109 -142 -191
-78 -163 -79 -167 -75 -720 l3 -485 28 -74 c46 -126 93 -199 191 -296 72 -72
109 -99 176 -133 157 -78 186 -82 651 -82 l408 0 3 -437 4 -438 27 -74 c46
-126 93 -199 191 -296 72 -72 109 -99 176 -133 160 -80 180 -82 700 -82 520 0
540 2 700 82 69 34 103 60 180 138 78 77 104 111 138 180 78 158 82 186 82
652 l0 408 408 0 c466 0 494 4 652 82 69 34 103 60 180 138 78 77 104 111 138
180 80 160 82 180 82 704 0 524 -2 537 -82 696 -34 69 -61 103 -138 180 -77
78 -111 104 -180 138 -158 78 -186 82 -652 82 l-408 0 0 413 c0 469 -3 490
-82 647 -34 69 -61 103 -138 180 -77 78 -111 104 -180 138 -161 80 -180 82
-704 81 -408 0 -469 -3 -534 -18z m937 -291 c206 -27 364 -185 391 -391 5 -42
10 -426 10 -891 l0 -818 -902 0 c-868 0 -904 -1 -932 -19 -15 -10 -37 -32 -47
-47 -18 -27 -19 -55 -19 -456 l0 -428 -342 0 c-189 0 -377 5 -417 10 -206 27
-364 185 -391 391 -12 96 -12 702 0 798 27 206 185 364 391 391 43 5 463 10
994 10 884 0 921 1 949 19 46 31 66 69 66 131 0 62 -20 100 -66 131 -27 18
-55 19 -456 19 l-428 0 0 343 c0 188 5 376 10 416 26 201 187 365 382 390 90
12 718 12 807 1z m1460 -1460 c206 -27 364 -185 391 -391 12 -96 12 -702 0
-798 -27 -206 -185 -364 -391 -391 -43 -5 -463 -10 -994 -10 -884 0 -921 -1
-949 -19 -46 -31 -66 -69 -66 -131 0 -62 20 -100 66 -131 27 -18 55 -19 457
-19 l427 0 0 -342 c0 -189 -5 -377 -10 -417 -27 -206 -185 -364 -391 -391 -96
-12 -702 -12 -798 0 -206 27 -364 185 -391 391 -5 42 -10 426 -10 892 l0 817
903 0 c867 0 903 1 931 19 15 10 37 32 47 47 18 27 19 55 19 457 l0 427 343 0
c188 0 376 -5 416 -10z"/>
<path d="M2126 4351 c-46 -31 -66 -69 -66 -131 0 -95 55 -150 150 -150 95 0
150 55 150 150 0 95 -55 150 -150 150 -37 0 -64 -6 -84 -19z"/>
<path d="M2826 1031 c-46 -31 -66 -69 -66 -131 0 -95 55 -150 150 -150 95 0
150 55 150 150 0 95 -55 150 -150 150 -37 0 -64 -6 -84 -19z"/>
</g>
</svg>
